<svg xmlns="http://www.w3.org/2000/svg" xmlns:xlink="http://www.w3.org/1999/xlink" width="1920" zoomAndPan="magnify" viewBox="0 0 1440 809.999993" height="1080" preserveAspectRatio="xMidYMid meet" version="1.0"><defs><g/></defs><g fill="#000000" fill-opacity="1"><g transform="translate(343.84056, 475.113493)"><g><path d="M 72.609375 0 L 72.609375 -179.890625 C 59.960938 -179.890625 48.785156 -177.4375 39.078125 -172.53125 C 29.378906 -167.625 21.800781 -160.863281 16.34375 -152.25 C 10.894531 -143.632812 8.171875 -133.660156 8.171875 -122.328125 L 4.90625 -122.328125 L 4.90625 -183.15625 L 189.703125 -183.15625 L 189.703125 -122.328125 L 186.421875 -122.328125 C 186.421875 -133.660156 183.695312 -143.632812 178.25 -152.25 C 172.800781 -160.863281 165.222656 -167.625 155.515625 -172.53125 C 145.816406 -177.4375 134.644531 -179.890625 122 -179.890625 L 122 0 Z M 72.609375 0 "/></g></g></g><g fill="#000000" fill-opacity="1"><g transform="translate(519.793103, 475.113493)"><g><path d="M 16.359375 0 L 16.359375 -202.78125 L 64.109375 -202.78125 L 64.109375 -108.578125 C 67.378906 -112.941406 71.519531 -117.410156 76.53125 -121.984375 C 81.550781 -126.566406 87.273438 -130.492188 93.703125 -133.765625 C 100.140625 -137.035156 106.953125 -138.671875 114.140625 -138.671875 C 125.484375 -138.671875 134.585938 -135.726562 141.453125 -129.84375 C 148.316406 -123.957031 151.75 -117.304688 151.75 -109.890625 L 151.75 0 L 104 0 L 104 -110.875 C 104 -119.8125 101.492188 -124.929688 96.484375 -126.234375 C 91.472656 -127.546875 85.910156 -125.585938 79.796875 -120.359375 C 78.492188 -119.265625 76.039062 -116.8125 72.4375 -113 C 68.84375 -109.1875 66.066406 -105.863281 64.109375 -103.03125 L 64.109375 0 Z M 16.359375 0 "/></g></g></g><g fill="#000000" fill-opacity="1"><g transform="translate(669.254447, 475.113493)"><g><path d="M 41.859375 -151.4375 C 34.878906 -151.4375 28.882812 -153.941406 23.875 -158.953125 C 18.863281 -163.960938 16.359375 -170.066406 16.359375 -177.265625 C 16.359375 -184.242188 18.863281 -190.238281 23.875 -195.25 C 28.882812 -200.269531 34.878906 -202.78125 41.859375 -202.78125 C 49.054688 -202.78125 55.160156 -200.269531 60.171875 -195.25 C 65.191406 -190.238281 67.703125 -184.242188 67.703125 -177.265625 C 67.703125 -170.066406 65.191406 -163.960938 60.171875 -158.953125 C 55.160156 -153.941406 49.054688 -151.4375 41.859375 -151.4375 Z M 17.984375 0 L 17.984375 -133.4375 L 65.734375 -133.109375 L 65.734375 0 Z M 17.984375 0 "/></g></g></g><g fill="#000000" fill-opacity="1"><g transform="translate(734.663395, 475.113493)"><g><path d="M 80.78125 3.265625 C 67.476562 3.265625 55.320312 0.101562 44.3125 -6.21875 C 33.300781 -12.539062 24.523438 -21.039062 17.984375 -31.71875 C 11.441406 -42.40625 8.171875 -54.179688 8.171875 -67.046875 C 8.171875 -79.910156 11.441406 -91.628906 17.984375 -102.203125 C 24.523438 -112.773438 33.300781 -121.222656 44.3125 -127.546875 C 55.320312 -133.878906 67.476562 -137.046875 80.78125 -137.046875 C 98.226562 -137.046875 112.507812 -132.351562 123.625 -122.96875 C 134.75 -113.59375 140.3125 -100.296875 140.3125 -83.078125 L 55.28125 -83.078125 C 56.144531 -62.359375 60.664062 -46.382812 68.84375 -35.15625 C 77.019531 -23.925781 87.320312 -18.3125 99.75 -18.3125 C 108.90625 -18.3125 117.132812 -21.582031 124.4375 -28.125 C 131.75 -34.664062 137.148438 -43.0625 140.640625 -53.3125 L 144.234375 -52.65625 C 140.742188 -36.738281 133.65625 -23.4375 122.96875 -12.75 C 112.289062 -2.070312 98.226562 3.265625 80.78125 3.265625 Z M 55.28125 -86.34375 L 96.484375 -86.34375 C 96.484375 -99.644531 95.117188 -110.816406 92.390625 -119.859375 C 89.671875 -128.910156 85.148438 -133.4375 78.828125 -133.4375 C 72.503906 -133.4375 67.050781 -128.910156 62.46875 -119.859375 C 57.882812 -110.816406 55.488281 -99.644531 55.28125 -86.34375 Z M 55.28125 -86.34375 "/></g></g></g><g fill="#000000" fill-opacity="1"><g transform="translate(868.426242, 475.113493)"><g><path d="M 16.359375 0 L 16.359375 -133.4375 L 64.109375 -133.4375 L 64.109375 -108.578125 C 67.378906 -112.941406 71.519531 -117.410156 76.53125 -121.984375 C 81.550781 -126.566406 87.273438 -130.492188 93.703125 -133.765625 C 100.140625 -137.035156 106.953125 -138.671875 114.140625 -138.671875 C 125.484375 -138.671875 134.585938 -135.726562 141.453125 -129.84375 C 148.316406 -123.957031 151.75 -117.304688 151.75 -109.890625 L 151.75 0 L 104 0 L 104 -110.875 C 104 -119.8125 101.492188 -124.929688 96.484375 -126.234375 C 91.472656 -127.546875 85.910156 -125.585938 79.796875 -120.359375 C 78.492188 -119.265625 76.039062 -116.8125 72.4375 -113 C 68.84375 -109.1875 66.066406 -105.863281 64.109375 -103.03125 L 64.109375 0 Z M 16.359375 0 "/></g></g></g><g fill="#000000" fill-opacity="1"><g transform="translate(1017.887586, 475.113493)"><g><path d="M 39.25 3.265625 C 32.925781 3.265625 27.53125 1.03125 23.0625 -3.4375 C 18.59375 -7.90625 16.359375 -13.300781 16.359375 -19.625 C 16.359375 -25.945312 18.59375 -31.34375 23.0625 -35.8125 C 27.53125 -40.28125 32.925781 -42.515625 39.25 -42.515625 C 45.570312 -42.515625 50.910156 -40.28125 55.265625 -35.8125 C 59.628906 -31.34375 61.8125 -25.945312 61.8125 -19.625 C 61.8125 -13.300781 59.628906 -7.90625 55.265625 -3.4375 C 50.910156 1.03125 45.570312 3.265625 39.25 3.265625 Z M 39.25 3.265625 "/></g></g></g></svg>